<svg width="239" height="253" viewBox="0 0 239 253" fill="none" xmlns="http://www.w3.org/2000/svg">
<g clip-path="url(#clip0_89_1434)">
<path d="M238.916 94.2838C238.916 105.664 231.346 115.848 220.171 118.943L206.608 122.701C214.583 125.989 220.619 133.205 222.111 142.172C224.18 154.513 217.015 166.554 205.2 170.632L172.529 181.862C176.154 190.595 174.683 200.672 168.626 208.016L139.154 243.714C130.154 254.624 114.01 256.14 103.134 247.13C94.1771 239.721 91.554 227.488 95.9045 217.325L65.3017 217.325C52.8047 217.325 42.1204 208.273 40.0518 195.932C38.5163 186.752 42.0991 177.72 48.9021 172.041L25.5502 172.041C12.7546 172.041 1.92099 162.583 0.193591 149.88C-1.53381 137.198 6.37812 125.156 18.7045 121.74L48.6675 113.414C39.3054 110.745 32.0546 102.845 30.4338 92.8747C28.4718 80.8119 35.3174 69.0265 46.7695 64.7565L101.854 44.2603C93.6439 36.4888 91.2981 23.9135 96.9281 13.4733C103.646 1.02612 119.171 -3.62823 131.604 3.09709L174.789 26.4329C183.618 31.2153 188.864 40.6948 188.161 50.7508C187.713 57.2412 184.834 63.1552 180.334 67.4893L214.264 68.6636C226.889 69.1119 237.296 78.6982 238.788 91.2521C238.916 92.2769 238.959 93.2804 238.959 94.2838L238.916 94.2838Z" fill="#F56BD6"/>
<path d="M104.966 102.396C104.966 113.338 113.426 122.209 123.861 122.209C134.296 122.209 142.756 113.338 142.756 102.396C142.756 91.4533 134.296 82.5828 123.861 82.5828C113.426 82.5828 104.966 91.4533 104.966 102.396Z" fill="#FEFEFE"/>
<path d="M119.041 105.116C119.041 110.375 123.109 114.639 128.126 114.639C133.144 114.639 137.211 110.375 137.211 105.116C137.211 99.8575 133.144 95.5942 128.126 95.5942C123.109 95.5942 119.041 99.8575 119.041 105.116Z" fill="#24212B"/>
<path d="M104.966 150.605C104.966 161.547 113.426 170.417 123.861 170.417C134.296 170.417 142.756 161.547 142.756 150.605C142.756 139.662 134.296 130.792 123.861 130.792C113.426 130.792 104.966 139.662 104.966 150.605Z" fill="#FEFEFE"/>
<path d="M119.041 153.325C119.041 158.584 123.109 162.847 128.126 162.847C133.144 162.847 137.211 158.584 137.211 153.325C137.211 148.066 133.144 143.803 128.126 143.803C123.109 143.803 119.041 148.066 119.041 153.325Z" fill="#24212B"/>
<path d="M95.3909 134.314C91.9574 134.314 89.1637 130.834 89.1637 126.5C89.1637 122.166 91.9574 118.686 95.3909 118.686C95.5615 118.686 95.7107 118.686 95.8813 118.707L95.8813 134.25C95.7107 134.25 95.5615 134.272 95.3909 134.272L95.3909 134.314Z" fill="#24212B"/>
</g>
<defs>
<clipPath id="clip0_89_1434">
<rect width="253" height="239" fill="white" transform="translate(239) rotate(90)"/>
</clipPath>
</defs>
</svg>
