<svg width="203" height="76" viewBox="0 0 203 76" fill="none" xmlns="http://www.w3.org/2000/svg">
<rect x="1" y="1" width="201" height="74" rx="14" fill="white"/>
<rect x="1" y="1" width="201" height="74" rx="14" stroke="#F3F1F3" stroke-width="2"/>
<path d="M28.0941 32.2031V18.7931H33.7281C34.5321 18.7931 35.2221 18.9371 35.7981 19.2251C36.3861 19.5131 36.8361 19.9211 37.1481 20.4491C37.4721 20.9651 37.6341 21.5831 37.6341 22.3031C37.6341 22.9631 37.4601 23.5631 37.1121 24.1031C36.7761 24.6311 36.2781 25.0451 35.6181 25.3451L35.6001 24.6791C36.1761 24.8951 36.6501 25.1831 37.0221 25.5431C37.4061 25.8911 37.6941 26.2991 37.8861 26.7671C38.0781 27.2231 38.1741 27.7091 38.1741 28.2251C38.1741 29.4611 37.7781 30.4331 36.9861 31.1411C36.1941 31.8491 35.1141 32.2031 33.7461 32.2031H28.0941ZM29.8581 30.5831H33.8181C34.5981 30.5831 35.2221 30.3731 35.6901 29.9531C36.1581 29.5331 36.3921 28.9631 36.3921 28.2431C36.3921 27.5231 36.1581 26.9531 35.6901 26.5331C35.2221 26.1011 34.5981 25.8851 33.8181 25.8851H29.8581V30.5831ZM29.8581 24.3011H33.6921C34.3401 24.3011 34.8621 24.1151 35.2581 23.7431C35.6541 23.3591 35.8521 22.8731 35.8521 22.2851C35.8521 21.6731 35.6541 21.2051 35.2581 20.8811C34.8621 20.5571 34.3401 20.3951 33.6921 20.3951H29.8581V24.3011ZM44.967 32.4191C44.031 32.4191 43.185 32.2031 42.429 31.7711C41.673 31.3271 41.073 30.7211 40.629 29.9531C40.185 29.1851 39.963 28.3151 39.963 27.3431C39.963 26.3711 40.179 25.5071 40.611 24.7511C41.055 23.9951 41.655 23.3951 42.411 22.9511C43.167 22.5071 44.019 22.2851 44.967 22.2851C45.903 22.2851 46.749 22.5071 47.505 22.9511C48.261 23.3831 48.855 23.9771 49.287 24.7331C49.731 25.4891 49.953 26.3591 49.953 27.3431C49.953 28.3271 49.725 29.2031 49.269 29.9711C48.813 30.7271 48.207 31.3271 47.451 31.7711C46.707 32.2031 45.879 32.4191 44.967 32.4191ZM44.967 30.7991C45.567 30.7991 46.107 30.6491 46.587 30.3491C47.079 30.0491 47.463 29.6351 47.739 29.1071C48.027 28.5791 48.171 27.9911 48.171 27.3431C48.171 26.6831 48.027 26.1011 47.739 25.5971C47.463 25.0811 47.079 24.6731 46.587 24.3731C46.107 24.0611 45.567 23.9051 44.967 23.9051C44.355 23.9051 43.803 24.0611 43.311 24.3731C42.831 24.6731 42.447 25.0811 42.159 25.5971C41.871 26.1011 41.727 26.6831 41.727 27.3431C41.727 27.9911 41.871 28.5791 42.159 29.1071C42.447 29.6351 42.831 30.0491 43.311 30.3491C43.803 30.6491 44.355 30.7991 44.967 30.7991ZM52.1363 32.2031V22.5011H53.7743V24.2831L53.5943 24.0311C53.8223 23.4791 54.1703 23.0711 54.6383 22.8071C55.1063 22.5311 55.6763 22.3931 56.3483 22.3931H56.9423V23.9771H56.0963C55.4123 23.9771 54.8603 24.1931 54.4403 24.6251C54.0203 25.0451 53.8103 25.6451 53.8103 26.4251V32.2031H52.1363ZM61.2733 32.4191C60.6373 32.4191 60.0733 32.3051 59.5813 32.0771C59.1013 31.8371 58.7233 31.5131 58.4473 31.1051C58.1713 30.6851 58.0333 30.2051 58.0333 29.6651C58.0333 29.1491 58.1413 28.6871 58.3573 28.2791C58.5853 27.8591 58.9333 27.5051 59.4013 27.2171C59.8813 26.9291 60.4813 26.7251 61.2013 26.6051L64.8013 26.0111V27.4151L61.5793 27.9551C60.9553 28.0631 60.4993 28.2611 60.2113 28.5491C59.9353 28.8371 59.7973 29.1911 59.7973 29.6111C59.7973 30.0071 59.9533 30.3371 60.2653 30.6011C60.5893 30.8651 60.9913 30.9971 61.4713 30.9971C62.0833 30.9971 62.6113 30.8711 63.0553 30.6191C63.5113 30.3551 63.8653 30.0011 64.1173 29.5571C64.3813 29.1131 64.5133 28.6211 64.5133 28.0811V25.6151C64.5133 25.0871 64.3153 24.6611 63.9193 24.3371C63.5353 24.0011 63.0253 23.8331 62.3893 23.8331C61.8373 23.8331 61.3453 23.9771 60.9133 24.2651C60.4933 24.5411 60.1813 24.9131 59.9773 25.3811L58.5193 24.6251C58.6993 24.1811 58.9873 23.7851 59.3833 23.4371C59.7793 23.0771 60.2413 22.7951 60.7693 22.5911C61.2973 22.3871 61.8493 22.2851 62.4253 22.2851C63.1693 22.2851 63.8233 22.4291 64.3873 22.7171C64.9513 22.9931 65.3893 23.3831 65.7013 23.8871C66.0253 24.3791 66.1873 24.9551 66.1873 25.6151V32.2031H64.5493V30.3671L64.8553 30.4751C64.6513 30.8591 64.3753 31.1951 64.0273 31.4831C63.6793 31.7711 63.2713 31.9991 62.8033 32.1671C62.3353 32.3351 61.8253 32.4191 61.2733 32.4191ZM71.8941 32.2031V18.5771H73.5681V32.2031H71.8941ZM79.0096 32.4191C78.3736 32.4191 77.8096 32.3051 77.3176 32.0771C76.8376 31.8371 76.4596 31.5131 76.1836 31.1051C75.9076 30.6851 75.7696 30.2051 75.7696 29.6651C75.7696 29.1491 75.8776 28.6871 76.0936 28.2791C76.3216 27.8591 76.6696 27.5051 77.1376 27.2171C77.6176 26.9291 78.2176 26.7251 78.9376 26.6051L82.5376 26.0111V27.4151L79.3156 27.9551C78.6916 28.0631 78.2356 28.2611 77.9476 28.5491C77.6716 28.8371 77.5336 29.1911 77.5336 29.6111C77.5336 30.0071 77.6896 30.3371 78.0016 30.6011C78.3256 30.8651 78.7276 30.9971 79.2076 30.9971C79.8196 30.9971 80.3476 30.8711 80.7916 30.6191C81.2476 30.3551 81.6016 30.0011 81.8536 29.5571C82.1176 29.1131 82.2496 28.6211 82.2496 28.0811V25.6151C82.2496 25.0871 82.0516 24.6611 81.6556 24.3371C81.2716 24.0011 80.7616 23.8331 80.1256 23.8331C79.5736 23.8331 79.0816 23.9771 78.6496 24.2651C78.2296 24.5411 77.9176 24.9131 77.7136 25.3811L76.2556 24.6251C76.4356 24.1811 76.7236 23.7851 77.1196 23.4371C77.5156 23.0771 77.9776 22.7951 78.5056 22.5911C79.0336 22.3871 79.5856 22.2851 80.1616 22.2851C80.9056 22.2851 81.5596 22.4291 82.1236 22.7171C82.6876 22.9931 83.1256 23.3831 83.4376 23.8871C83.7616 24.3791 83.9236 24.9551 83.9236 25.6151V32.2031H82.2856V30.3671L82.5916 30.4751C82.3876 30.8591 82.1116 31.1951 81.7636 31.4831C81.4156 31.7711 81.0076 31.9991 80.5396 32.1671C80.0716 32.3351 79.5616 32.4191 79.0096 32.4191ZM79.3336 20.6831L80.7556 17.8391H83.0236L81.0076 20.6831H79.3336ZM87.2571 28.2791L87.1491 18.7931H88.9131L88.7871 28.2791H87.2571ZM87.1491 32.2031V30.0431H88.9131V32.2031H87.1491ZM95.4359 32.2031V18.7931H103.932V20.4131H97.1999V24.7511H103.302V26.3711H97.1999V32.2031H95.4359ZM108.084 32.4191C107.448 32.4191 106.884 32.3051 106.392 32.0771C105.912 31.8371 105.534 31.5131 105.258 31.1051C104.982 30.6851 104.844 30.2051 104.844 29.6651C104.844 29.1491 104.952 28.6871 105.168 28.2791C105.396 27.8591 105.744 27.5051 106.212 27.2171C106.692 26.9291 107.292 26.7251 108.012 26.6051L111.612 26.0111V27.4151L108.39 27.9551C107.766 28.0631 107.31 28.2611 107.022 28.5491C106.746 28.8371 106.608 29.1911 106.608 29.6111C106.608 30.0071 106.764 30.3371 107.076 30.6011C107.4 30.8651 107.802 30.9971 108.282 30.9971C108.894 30.9971 109.422 30.8711 109.866 30.6191C110.322 30.3551 110.676 30.0011 110.928 29.5571C111.192 29.1131 111.324 28.6211 111.324 28.0811V25.6151C111.324 25.0871 111.126 24.6611 110.73 24.3371C110.346 24.0011 109.836 23.8331 109.2 23.8331C108.648 23.8331 108.156 23.9771 107.724 24.2651C107.304 24.5411 106.992 24.9131 106.788 25.3811L105.33 24.6251C105.51 24.1811 105.798 23.7851 106.194 23.4371C106.59 23.0771 107.052 22.7951 107.58 22.5911C108.108 22.3871 108.66 22.2851 109.236 22.2851C109.98 22.2851 110.634 22.4291 111.198 22.7171C111.762 22.9931 112.2 23.3831 112.512 23.8871C112.836 24.3791 112.998 24.9551 112.998 25.6151V32.2031H111.36V30.3671L111.666 30.4751C111.462 30.8591 111.186 31.1951 110.838 31.4831C110.49 31.7711 110.082 31.9991 109.614 32.1671C109.146 32.3351 108.636 32.4191 108.084 32.4191ZM115.593 32.2031V18.5771H117.267V32.2031H115.593ZM123.807 32.3111C122.859 32.3111 122.127 32.0411 121.611 31.5011C121.107 30.9611 120.855 30.1991 120.855 29.2151V24.1031H119.091V22.5011H119.451C119.883 22.5011 120.225 22.3691 120.477 22.1051C120.729 21.8411 120.855 21.4931 120.855 21.0611V20.2691H122.529V22.5011H124.707V24.1031H122.529V29.1611C122.529 29.4851 122.577 29.7671 122.673 30.0071C122.781 30.2471 122.955 30.4391 123.195 30.5831C123.435 30.7151 123.753 30.7811 124.149 30.7811C124.233 30.7811 124.335 30.7751 124.455 30.7631C124.587 30.7511 124.707 30.7391 124.815 30.7271V32.2031C124.659 32.2391 124.485 32.2631 124.293 32.2751C124.101 32.2991 123.939 32.3111 123.807 32.3111ZM129.723 32.4191C129.087 32.4191 128.523 32.3051 128.031 32.0771C127.551 31.8371 127.173 31.5131 126.897 31.1051C126.621 30.6851 126.483 30.2051 126.483 29.6651C126.483 29.1491 126.591 28.6871 126.807 28.2791C127.035 27.8591 127.383 27.5051 127.851 27.2171C128.331 26.9291 128.931 26.7251 129.651 26.6051L133.251 26.0111V27.4151L130.029 27.9551C129.405 28.0631 128.949 28.2611 128.661 28.5491C128.385 28.8371 128.247 29.1911 128.247 29.6111C128.247 30.0071 128.403 30.3371 128.715 30.6011C129.039 30.8651 129.441 30.9971 129.921 30.9971C130.533 30.9971 131.061 30.8711 131.505 30.6191C131.961 30.3551 132.315 30.0011 132.567 29.5571C132.831 29.1131 132.963 28.6211 132.963 28.0811V25.6151C132.963 25.0871 132.765 24.6611 132.369 24.3371C131.985 24.0011 131.475 23.8331 130.839 23.8331C130.287 23.8331 129.795 23.9771 129.363 24.2651C128.943 24.5411 128.631 24.9131 128.427 25.3811L126.969 24.6251C127.149 24.1811 127.437 23.7851 127.833 23.4371C128.229 23.0771 128.691 22.7951 129.219 22.5911C129.747 22.3871 130.299 22.2851 130.875 22.2851C131.619 22.2851 132.273 22.4291 132.837 22.7171C133.401 22.9931 133.839 23.3831 134.151 23.8871C134.475 24.3791 134.637 24.9551 134.637 25.6151V32.2031H132.999V30.3671L133.305 30.4751C133.101 30.8591 132.825 31.1951 132.477 31.4831C132.129 31.7711 131.721 31.9991 131.253 32.1671C130.785 32.3351 130.275 32.4191 129.723 32.4191ZM137.232 32.2031V22.5011H138.87V24.4811L138.636 24.1751C138.876 23.5631 139.26 23.0951 139.788 22.7711C140.316 22.4471 140.91 22.2851 141.57 22.2851C142.326 22.2851 143.004 22.4951 143.604 22.9151C144.216 23.3351 144.636 23.8871 144.864 24.5711L144.396 24.5891C144.648 23.8331 145.074 23.2631 145.674 22.8791C146.274 22.4831 146.94 22.2851 147.672 22.2851C148.344 22.2851 148.95 22.4411 149.49 22.7531C150.042 23.0651 150.48 23.4971 150.804 24.0491C151.128 24.6011 151.29 25.2251 151.29 25.9211V32.2031H149.598V26.4611C149.598 25.9211 149.502 25.4651 149.31 25.0931C149.118 24.7211 148.854 24.4331 148.518 24.2291C148.194 24.0131 147.81 23.9051 147.366 23.9051C146.934 23.9051 146.544 24.0131 146.196 24.2291C145.86 24.4331 145.59 24.7271 145.386 25.1111C145.194 25.4831 145.098 25.9331 145.098 26.4611V32.2031H143.406V26.4611C143.406 25.9211 143.31 25.4651 143.118 25.0931C142.926 24.7211 142.662 24.4331 142.326 24.2291C142.002 24.0131 141.618 23.9051 141.174 23.9051C140.742 23.9051 140.352 24.0131 140.004 24.2291C139.668 24.4331 139.398 24.7271 139.194 25.1111C139.002 25.4831 138.906 25.9331 138.906 26.4611V32.2031H137.232ZM160.253 32.4191C159.281 32.4191 158.435 32.1791 157.715 31.6991C156.995 31.2191 156.485 30.5711 156.185 29.7551L157.517 29.1071C157.793 29.6831 158.171 30.1391 158.651 30.4751C159.131 30.8111 159.665 30.9791 160.253 30.9791C160.781 30.9791 161.219 30.8531 161.567 30.6011C161.915 30.3491 162.089 30.0191 162.089 29.6111C162.089 29.3231 162.005 29.0951 161.837 28.9271C161.681 28.7471 161.489 28.6091 161.261 28.5131C161.033 28.4051 160.823 28.3271 160.631 28.2791L159.173 27.8651C158.297 27.6131 157.655 27.2531 157.247 26.7851C156.851 26.3171 156.653 25.7711 156.653 25.1471C156.653 24.5711 156.797 24.0731 157.085 23.6531C157.385 23.2211 157.787 22.8851 158.291 22.6451C158.807 22.4051 159.383 22.2851 160.019 22.2851C160.871 22.2851 161.633 22.5011 162.305 22.9331C162.989 23.3651 163.475 23.9711 163.763 24.7511L162.395 25.3811C162.179 24.8771 161.855 24.4811 161.423 24.1931C160.991 23.8931 160.505 23.7431 159.965 23.7431C159.473 23.7431 159.083 23.8691 158.795 24.1211C158.507 24.3611 158.363 24.6671 158.363 25.0391C158.363 25.3151 158.435 25.5431 158.579 25.7231C158.723 25.8911 158.897 26.0231 159.101 26.1191C159.305 26.2031 159.503 26.2751 159.695 26.3351L161.279 26.8031C162.071 27.0311 162.683 27.3851 163.115 27.8651C163.559 28.3451 163.781 28.9211 163.781 29.5931C163.781 30.1331 163.631 30.6191 163.331 31.0511C163.031 31.4831 162.617 31.8191 162.089 32.0591C161.561 32.2991 160.949 32.4191 160.253 32.4191ZM170.58 32.4191C169.644 32.4191 168.798 32.2031 168.042 31.7711C167.286 31.3271 166.686 30.7211 166.242 29.9531C165.798 29.1851 165.576 28.3151 165.576 27.3431C165.576 26.3711 165.792 25.5071 166.224 24.7511C166.668 23.9951 167.268 23.3951 168.024 22.9511C168.78 22.5071 169.632 22.2851 170.58 22.2851C171.516 22.2851 172.362 22.5071 173.118 22.9511C173.874 23.3831 174.468 23.9771 174.9 24.7331C175.344 25.4891 175.566 26.3591 175.566 27.3431C175.566 28.3271 175.338 29.2031 174.882 29.9711C174.426 30.7271 173.82 31.3271 173.064 31.7711C172.32 32.2031 171.492 32.4191 170.58 32.4191ZM170.58 30.7991C171.18 30.7991 171.72 30.6491 172.2 30.3491C172.692 30.0491 173.076 29.6351 173.352 29.1071C173.64 28.5791 173.784 27.9911 173.784 27.3431C173.784 26.6831 173.64 26.1011 173.352 25.5971C173.076 25.0811 172.692 24.6731 172.2 24.3731C171.72 24.0611 171.18 23.9051 170.58 23.9051C169.968 23.9051 169.416 24.0611 168.924 24.3731C168.444 24.6731 168.06 25.0811 167.772 25.5971C167.484 26.1011 167.34 26.6831 167.34 27.3431C167.34 27.9911 167.484 28.5791 167.772 29.1071C168.06 29.6351 168.444 30.0491 168.924 30.3491C169.416 30.6491 169.968 30.7991 170.58 30.7991ZM169.734 20.6831L171.156 17.8391H173.424L171.408 20.6831H169.734ZM27.8961 56.2031V46.5011H29.5341V48.4811L29.3001 48.1751C29.5401 47.5631 29.9241 47.0951 30.4521 46.7711C30.9801 46.4471 31.5741 46.2851 32.2341 46.2851C32.9901 46.2851 33.6681 46.4951 34.2681 46.9151C34.8801 47.3351 35.3001 47.8871 35.5281 48.5711L35.0601 48.5891C35.3121 47.8331 35.7381 47.2631 36.3381 46.8791C36.9381 46.4831 37.6041 46.2851 38.3361 46.2851C39.0081 46.2851 39.6141 46.4411 40.1541 46.7531C40.7061 47.0651 41.1441 47.4971 41.4681 48.0491C41.7921 48.6011 41.9541 49.2251 41.9541 49.9211V56.2031H40.2621V50.4611C40.2621 49.9211 40.1661 49.4651 39.9741 49.0931C39.7821 48.7211 39.5181 48.4331 39.1821 48.2291C38.8581 48.0131 38.4741 47.9051 38.0301 47.9051C37.5981 47.9051 37.2081 48.0131 36.8601 48.2291C36.5241 48.4331 36.2541 48.7271 36.0501 49.1111C35.8581 49.4831 35.7621 49.9331 35.7621 50.4611V56.2031H34.0701V50.4611C34.0701 49.9211 33.9741 49.4651 33.7821 49.0931C33.5901 48.7211 33.3261 48.4331 32.9901 48.2291C32.6661 48.0131 32.2821 47.9051 31.8381 47.9051C31.4061 47.9051 31.0161 48.0131 30.6681 48.2291C30.3321 48.4331 30.0621 48.7271 29.8581 49.1111C29.6661 49.4831 29.5701 49.9331 29.5701 50.4611V56.2031H27.8961ZM47.1756 56.4191C46.5396 56.4191 45.9756 56.3051 45.4836 56.0771C45.0036 55.8371 44.6256 55.5131 44.3496 55.1051C44.0736 54.6851 43.9356 54.2051 43.9356 53.6651C43.9356 53.1491 44.0436 52.6871 44.2596 52.2791C44.4876 51.8591 44.8356 51.5051 45.3036 51.2171C45.7836 50.9291 46.3836 50.7251 47.1036 50.6051L50.7036 50.0111V51.4151L47.4816 51.9551C46.8576 52.0631 46.4016 52.2611 46.1136 52.5491C45.8376 52.8371 45.6996 53.1911 45.6996 53.6111C45.6996 54.0071 45.8556 54.3371 46.1676 54.6011C46.4916 54.8651 46.8936 54.9971 47.3736 54.9971C47.9856 54.9971 48.5136 54.8711 48.9576 54.6191C49.4136 54.3551 49.7676 54.0011 50.0196 53.5571C50.2836 53.1131 50.4156 52.6211 50.4156 52.0811V49.6151C50.4156 49.0871 50.2176 48.6611 49.8216 48.3371C49.4376 48.0011 48.9276 47.8331 48.2916 47.8331C47.7396 47.8331 47.2476 47.9771 46.8156 48.2651C46.3956 48.5411 46.0836 48.9131 45.8796 49.3811L44.4216 48.6251C44.6016 48.1811 44.8896 47.7851 45.2856 47.4371C45.6816 47.0771 46.1436 46.7951 46.6716 46.5911C47.1996 46.3871 47.7516 46.2851 48.3276 46.2851C49.0716 46.2851 49.7256 46.4291 50.2896 46.7171C50.8536 46.9931 51.2916 47.3831 51.6036 47.8871C51.9276 48.3791 52.0896 48.9551 52.0896 49.6151V56.2031H50.4516V54.3671L50.7576 54.4751C50.5536 54.8591 50.2776 55.1951 49.9296 55.4831C49.5816 55.7711 49.1736 55.9991 48.7056 56.1671C48.2376 56.3351 47.7276 56.4191 47.1756 56.4191ZM54.6852 56.2031V46.5011H56.3592V56.2031H54.6852ZM54.6852 44.9531V42.7931H56.3592V44.9531H54.6852ZM62.4306 56.4191C61.4586 56.4191 60.6126 56.1791 59.8926 55.6991C59.1726 55.2191 58.6626 54.5711 58.3626 53.7551L59.6946 53.1071C59.9706 53.6831 60.3486 54.1391 60.8286 54.4751C61.3086 54.8111 61.8426 54.9791 62.4306 54.9791C62.9586 54.9791 63.3966 54.8531 63.7446 54.6011C64.0926 54.3491 64.2666 54.0191 64.2666 53.6111C64.2666 53.3231 64.1826 53.0951 64.0146 52.9271C63.8586 52.7471 63.6666 52.6091 63.4386 52.5131C63.2106 52.4051 63.0006 52.3271 62.8086 52.2791L61.3506 51.8651C60.4746 51.6131 59.8326 51.2531 59.4246 50.7851C59.0286 50.3171 58.8306 49.7711 58.8306 49.1471C58.8306 48.5711 58.9746 48.0731 59.2626 47.6531C59.5626 47.2211 59.9646 46.8851 60.4686 46.6451C60.9846 46.4051 61.5606 46.2851 62.1966 46.2851C63.0486 46.2851 63.8106 46.5011 64.4826 46.9331C65.1666 47.3651 65.6526 47.9711 65.9406 48.7511L64.5726 49.3811C64.3566 48.8771 64.0326 48.4811 63.6006 48.1931C63.1686 47.8931 62.6826 47.7431 62.1426 47.7431C61.6506 47.7431 61.2606 47.8691 60.9726 48.1211C60.6846 48.3611 60.5406 48.6671 60.5406 49.0391C60.5406 49.3151 60.6126 49.5431 60.7566 49.7231C60.9006 49.8911 61.0746 50.0231 61.2786 50.1191C61.4826 50.2031 61.6806 50.2751 61.8726 50.3351L63.4566 50.8031C64.2486 51.0311 64.8606 51.3851 65.2926 51.8651C65.7366 52.3451 65.9586 52.9211 65.9586 53.5931C65.9586 54.1331 65.8086 54.6191 65.5086 55.0511C65.2086 55.4831 64.7946 55.8191 64.2666 56.0591C63.7386 56.2991 63.1266 56.4191 62.4306 56.4191ZM75.3653 56.4191C74.6693 56.4191 74.0153 56.2991 73.4033 56.0591C72.7913 55.8071 72.2573 55.4531 71.8013 54.9971C71.3573 54.5291 71.0333 53.9831 70.8293 53.3591L72.2693 52.7471C72.5213 53.4071 72.9293 53.9231 73.4933 54.2951C74.0693 54.6551 74.6933 54.8351 75.3653 54.8351C75.9173 54.8351 76.4033 54.7151 76.8233 54.4751C77.2553 54.2231 77.5913 53.8811 77.8313 53.4491C78.0713 53.0051 78.1913 52.5131 78.1913 51.9731C78.1913 51.4091 78.0653 50.9111 77.8133 50.4791C77.5733 50.0471 77.2433 49.7111 76.8233 49.4711C76.4033 49.2191 75.9233 49.0931 75.3833 49.0931C74.8313 49.0931 74.3273 49.2191 73.8713 49.4711C73.4153 49.7231 73.0853 50.0411 72.8813 50.4251L71.4593 50.1191L72.4853 42.7931H79.4333V44.3231H73.1513L73.8353 43.6391L73.0433 49.3271L72.4313 48.9671C72.8273 48.4631 73.2893 48.1031 73.8173 47.8871C74.3573 47.6591 74.9393 47.5451 75.5633 47.5451C76.4393 47.5451 77.2073 47.7431 77.8673 48.1391C78.5273 48.5351 79.0433 49.0631 79.4153 49.7231C79.7873 50.3831 79.9733 51.1331 79.9733 51.9731C79.9733 52.8131 79.7693 53.5691 79.3613 54.2411C78.9653 54.9131 78.4193 55.4471 77.7233 55.8431C77.0393 56.2271 76.2533 56.4191 75.3653 56.4191ZM85.4645 59.8031V46.5011H87.1025V48.5891L86.8865 48.1751C87.2465 47.5991 87.7385 47.1431 88.3625 46.8071C88.9865 46.4591 89.7005 46.2851 90.5045 46.2851C91.4165 46.2851 92.2325 46.5071 92.9525 46.9511C93.6845 47.3951 94.2605 48.0011 94.6805 48.7691C95.1005 49.5251 95.3105 50.3891 95.3105 51.3611C95.3105 52.3091 95.1005 53.1671 94.6805 53.9351C94.2605 54.7031 93.6845 55.3091 92.9525 55.7531C92.2325 56.1971 91.4105 56.4191 90.4865 56.4191C89.7065 56.4191 88.9925 56.2451 88.3445 55.8971C87.7085 55.5491 87.2165 55.0571 86.8685 54.4211L87.1385 54.1331V59.8031H85.4645ZM90.3605 54.7991C90.9725 54.7991 91.5185 54.6491 91.9985 54.3491C92.4785 54.0491 92.8505 53.6411 93.1145 53.1251C93.3905 52.5971 93.5285 52.0091 93.5285 51.3611C93.5285 50.6891 93.3905 50.1011 93.1145 49.5971C92.8505 49.0811 92.4785 48.6731 91.9985 48.3731C91.5185 48.0611 90.9725 47.9051 90.3605 47.9051C89.7485 47.9051 89.1965 48.0551 88.7045 48.3551C88.2245 48.6551 87.8405 49.0691 87.5525 49.5971C87.2765 50.1131 87.1385 50.7011 87.1385 51.3611C87.1385 52.0091 87.2765 52.5971 87.5525 53.1251C87.8405 53.6411 88.2245 54.0491 88.7045 54.3491C89.1965 54.6491 89.7485 54.7991 90.3605 54.7991ZM101.969 56.4191C101.033 56.4191 100.199 56.1971 99.4675 55.7531C98.7355 55.3091 98.1595 54.7031 97.7395 53.9351C97.3195 53.1551 97.1095 52.2851 97.1095 51.3251C97.1095 50.3531 97.3135 49.4891 97.7215 48.7331C98.1415 47.9771 98.7055 47.3831 99.4135 46.9511C100.133 46.5071 100.937 46.2851 101.825 46.2851C102.545 46.2851 103.181 46.4171 103.733 46.6811C104.297 46.9331 104.771 47.2811 105.155 47.7251C105.551 48.1571 105.851 48.6551 106.055 49.2191C106.271 49.7711 106.379 50.3471 106.379 50.9471C106.379 51.0791 106.367 51.2291 106.343 51.3971C106.331 51.5531 106.313 51.7031 106.289 51.8471H98.3335V50.4071H105.317L104.525 51.0551C104.633 50.4311 104.573 49.8731 104.345 49.3811C104.117 48.8891 103.781 48.4991 103.337 48.2111C102.893 47.9231 102.389 47.7791 101.825 47.7791C101.261 47.7791 100.745 47.9231 100.277 48.2111C99.8095 48.4991 99.4435 48.9131 99.1795 49.4531C98.9275 49.9811 98.8255 50.6111 98.8735 51.3431C98.8255 52.0511 98.9335 52.6751 99.1975 53.2151C99.4735 53.7431 99.8575 54.1571 100.349 54.4571C100.853 54.7451 101.399 54.8891 101.987 54.8891C102.635 54.8891 103.181 54.7391 103.625 54.4391C104.069 54.1391 104.429 53.7551 104.705 53.2871L106.109 54.0071C105.917 54.4511 105.617 54.8591 105.209 55.2311C104.813 55.5911 104.339 55.8791 103.787 56.0951C103.247 56.3111 102.641 56.4191 101.969 56.4191ZM108.562 56.2031V46.5011H110.2V48.2831L110.02 48.0311C110.248 47.4791 110.596 47.0711 111.064 46.8071C111.532 46.5311 112.102 46.3931 112.774 46.3931H113.368V47.9771H112.522C111.838 47.9771 111.286 48.1931 110.866 48.6251C110.446 49.0451 110.236 49.6451 110.236 50.4251V56.2031H108.562ZM119.481 60.1631C118.797 60.1631 118.161 60.0551 117.573 59.8391C116.997 59.6231 116.499 59.3231 116.079 58.9391C115.671 58.5671 115.359 58.1291 115.143 57.6251L116.709 56.9051C116.877 57.3611 117.195 57.7451 117.663 58.0571C118.143 58.3811 118.743 58.5431 119.463 58.5431C120.015 58.5431 120.513 58.4351 120.957 58.2191C121.413 58.0151 121.773 57.7031 122.037 57.2831C122.301 56.8751 122.433 56.3771 122.433 55.7891V53.6111L122.739 53.9351C122.403 54.5951 121.917 55.0991 121.281 55.4471C120.657 55.7951 119.967 55.9691 119.211 55.9691C118.299 55.9691 117.483 55.7591 116.763 55.3391C116.043 54.9071 115.479 54.3251 115.071 53.5931C114.663 52.8491 114.459 52.0271 114.459 51.1271C114.459 50.2151 114.663 49.3931 115.071 48.6611C115.479 47.9291 116.037 47.3531 116.745 46.9331C117.465 46.5011 118.281 46.2851 119.193 46.2851C119.949 46.2851 120.633 46.4591 121.245 46.8071C121.869 47.1431 122.367 47.6111 122.739 48.2111L122.487 48.6611V46.5011H124.125V55.7891C124.125 56.6291 123.927 57.3791 123.531 58.0391C123.135 58.6991 122.583 59.2151 121.875 59.5871C121.179 59.9711 120.381 60.1631 119.481 60.1631ZM119.355 54.3491C119.931 54.3491 120.447 54.2051 120.903 53.9171C121.371 53.6291 121.743 53.2451 122.019 52.7651C122.295 52.2731 122.433 51.7271 122.433 51.1271C122.433 50.5391 122.295 49.9991 122.019 49.5071C121.743 49.0151 121.371 48.6251 120.903 48.3371C120.447 48.0491 119.931 47.9051 119.355 47.9051C118.767 47.9051 118.233 48.0491 117.753 48.3371C117.273 48.6251 116.895 49.0151 116.619 49.5071C116.355 49.9871 116.223 50.5271 116.223 51.1271C116.223 51.7271 116.355 52.2731 116.619 52.7651C116.895 53.2451 117.267 53.6291 117.735 53.9171C118.215 54.2051 118.755 54.3491 119.355 54.3491ZM130.158 56.4191C129.462 56.4191 128.832 56.2571 128.268 55.9331C127.716 55.6091 127.284 55.1591 126.972 54.5831C126.672 53.9951 126.522 53.3231 126.522 52.5671V46.5011H128.196V52.3871C128.196 52.8671 128.292 53.2871 128.484 53.6471C128.688 54.0071 128.964 54.2891 129.312 54.4931C129.672 54.6971 130.08 54.7991 130.536 54.7991C130.992 54.7991 131.394 54.6971 131.742 54.4931C132.102 54.2891 132.378 53.9951 132.57 53.6111C132.774 53.2271 132.876 52.7711 132.876 52.2431V46.5011H134.568V56.2031H132.93V54.3131L133.2 54.4751C132.972 55.0871 132.582 55.5671 132.03 55.9151C131.49 56.2511 130.866 56.4191 130.158 56.4191ZM137.162 56.2031V46.5011H138.8V48.3911L138.53 48.2291C138.77 47.6171 139.154 47.1431 139.682 46.8071C140.222 46.4591 140.852 46.2851 141.572 46.2851C142.268 46.2851 142.886 46.4411 143.426 46.7531C143.978 47.0651 144.41 47.4971 144.722 48.0491C145.046 48.6011 145.208 49.2251 145.208 49.9211V56.2031H143.516V50.4611C143.516 49.9211 143.42 49.4651 143.228 49.0931C143.036 48.7211 142.76 48.4331 142.4 48.2291C142.052 48.0131 141.65 47.9051 141.194 47.9051C140.738 47.9051 140.33 48.0131 139.97 48.2291C139.622 48.4331 139.346 48.7271 139.142 49.1111C138.938 49.4831 138.836 49.9331 138.836 50.4611V56.2031H137.162ZM151.545 56.3111C150.597 56.3111 149.865 56.0411 149.349 55.5011C148.845 54.9611 148.593 54.1991 148.593 53.2151V48.1031H146.829V46.5011H147.189C147.621 46.5011 147.963 46.3691 148.215 46.1051C148.467 45.8411 148.593 45.4931 148.593 45.0611V44.2691H150.267V46.5011H152.445V48.1031H150.267V53.1611C150.267 53.4851 150.315 53.7671 150.411 54.0071C150.519 54.2471 150.693 54.4391 150.933 54.5831C151.173 54.7151 151.491 54.7811 151.887 54.7811C151.971 54.7811 152.073 54.7751 152.193 54.7631C152.325 54.7511 152.445 54.7391 152.553 54.7271V56.2031C152.397 56.2391 152.223 56.2631 152.031 56.2751C151.839 56.2991 151.677 56.3111 151.545 56.3111ZM157.461 56.4191C156.825 56.4191 156.261 56.3051 155.769 56.0771C155.289 55.8371 154.911 55.5131 154.635 55.1051C154.359 54.6851 154.221 54.2051 154.221 53.6651C154.221 53.1491 154.329 52.6871 154.545 52.2791C154.773 51.8591 155.121 51.5051 155.589 51.2171C156.069 50.9291 156.669 50.7251 157.389 50.6051L160.989 50.0111V51.4151L157.767 51.9551C157.143 52.0631 156.687 52.2611 156.399 52.5491C156.123 52.8371 155.985 53.1911 155.985 53.6111C155.985 54.0071 156.141 54.3371 156.453 54.6011C156.777 54.8651 157.179 54.9971 157.659 54.9971C158.271 54.9971 158.799 54.8711 159.243 54.6191C159.699 54.3551 160.053 54.0011 160.305 53.5571C160.569 53.1131 160.701 52.6211 160.701 52.0811V49.6151C160.701 49.0871 160.503 48.6611 160.107 48.3371C159.723 48.0011 159.213 47.8331 158.577 47.8331C158.025 47.8331 157.533 47.9771 157.101 48.2651C156.681 48.5411 156.369 48.9131 156.165 49.3811L154.707 48.6251C154.887 48.1811 155.175 47.7851 155.571 47.4371C155.967 47.0771 156.429 46.7951 156.957 46.5911C157.485 46.3871 158.037 46.2851 158.613 46.2851C159.357 46.2851 160.011 46.4291 160.575 46.7171C161.139 46.9931 161.577 47.3831 161.889 47.8871C162.213 48.3791 162.375 48.9551 162.375 49.6151V56.2031H160.737V54.3671L161.043 54.4751C160.839 54.8591 160.563 55.1951 160.215 55.4831C159.867 55.7711 159.459 55.9991 158.991 56.1671C158.523 56.3351 158.013 56.4191 157.461 56.4191ZM168.444 56.4191C167.472 56.4191 166.626 56.1791 165.906 55.6991C165.186 55.2191 164.676 54.5711 164.376 53.7551L165.708 53.1071C165.984 53.6831 166.362 54.1391 166.842 54.4751C167.322 54.8111 167.856 54.9791 168.444 54.9791C168.972 54.9791 169.41 54.8531 169.758 54.6011C170.106 54.3491 170.28 54.0191 170.28 53.6111C170.28 53.3231 170.196 53.0951 170.028 52.9271C169.872 52.7471 169.68 52.6091 169.452 52.5131C169.224 52.4051 169.014 52.3271 168.822 52.2791L167.364 51.8651C166.488 51.6131 165.846 51.2531 165.438 50.7851C165.042 50.3171 164.844 49.7711 164.844 49.1471C164.844 48.5711 164.988 48.0731 165.276 47.6531C165.576 47.2211 165.978 46.8851 166.482 46.6451C166.998 46.4051 167.574 46.2851 168.21 46.2851C169.062 46.2851 169.824 46.5011 170.496 46.9331C171.18 47.3651 171.666 47.9711 171.954 48.7511L170.586 49.3811C170.37 48.8771 170.046 48.4811 169.614 48.1931C169.182 47.8931 168.696 47.7431 168.156 47.7431C167.664 47.7431 167.274 47.8691 166.986 48.1211C166.698 48.3611 166.554 48.6671 166.554 49.0391C166.554 49.3151 166.626 49.5431 166.77 49.7231C166.914 49.8911 167.088 50.0231 167.292 50.1191C167.496 50.2031 167.694 50.2751 167.886 50.3351L169.47 50.8031C170.262 51.0311 170.874 51.3851 171.306 51.8651C171.75 52.3451 171.972 52.9211 171.972 53.5931C171.972 54.1331 171.822 54.6191 171.522 55.0511C171.222 55.4831 170.808 55.8191 170.28 56.0591C169.752 56.2991 169.14 56.4191 168.444 56.4191Z" fill="#24212B"/>
</svg>
